# File created by Blade
# Date/Time:  Wed Apr 08 14:55:03 2015
# Frame Rate: 120.000 fps
#------------------------------------------------------
:FULLY-SPECIFIED
:DEGREES
1882
root 1.392324 31.701943 -11.553072 28.147935 46.442631 2.260003
Spine -17.337203 5.109891 -8.705755
Head -19.663604 -29.588497 11.749953
LeftShoulder -26.120326 49.899255 2.430182
LeftArm 45.371196 4.101386 -72.603042
LeftForeArm 2.506350 -0.000000 118.736039
LeftHand 3.881581 -0.000000 -6.998553
LeftHandThumb1 -26.253704 0.000000 33.147579
RightShoulder -1.763756 -5.739929 -23.605828
RightArm 17.593812 -29.074518 73.237014
RightForeArm 5.152728 -0.000000 113.061388
RightHand 9.031317 -0.000000 4.282371
RightHandThumb1 -24.326973 -0.000000 -32.862282
LeftUpLeg -46.639441 -5.311342 -1.536044
LeftLeg 25.974913 -0.000000 -0.000000
LeftFoot -6.586079 5.152761 -16.580889
LeftToeBase -5.071567 -0.000000 0.000000
RightUpLeg -3.863168 -3.351590 -1.780725
RightLeg 35.766957 -0.000000 -0.000000
RightFoot 9.469759 -5.782225 21.482092
RightToeBase 6.185523 -0.000000 -0.000000
1883
root 1.536837 31.733651 -11.436745 28.238820 47.403455 2.607977
Spine -17.434639 4.952070 -8.792139
Head -19.395240 -30.381127 11.736173
LeftShoulder -26.621884 50.080754 2.007729
LeftArm 45.130413 3.242900 -72.382548
LeftForeArm 2.706585 -0.000000 118.755778
LeftHand 3.829570 0.000000 -7.119857
LeftHandThumb1 -26.253704 0.000000 33.147579
RightShoulder -2.013675 -6.107119 -23.737430
RightArm 17.028799 -28.719905 72.839125
RightForeArm 5.302699 -0.000000 113.045572
RightHand 9.033081 -0.000000 4.316643
RightHandThumb1 -24.326973 -0.000000 -32.862282
LeftUpLeg -45.969706 -5.673823 -1.728606
LeftLeg 25.632086 -0.000000 -0.000000
LeftFoot -6.614565 4.481978 -16.865391
LeftToeBase -4.745825 -0.000000 0.000000
RightUpLeg -3.931611 -3.284626 -1.644660
RightLeg 39.512946 -0.000000 -0.000000
RightFoot 12.228121 -4.555677 21.170700
RightToeBase 8.815832 -0.000000 -0.000000
1884
root 1.679966 31.761576 -11.315531 28.342377 48.373649 2.963503
Spine -17.595556 4.810274 -8.902107
Head -19.040835 -31.310786 11.738713
LeftShoulder -27.076578 50.279471 1.625801
LeftArm 44.921988 2.285282 -72.100134
LeftForeArm 2.876028 -0.000000 118.798938
LeftHand 3.803796 0.000000 -7.303761
LeftHandThumb1 -26.253704 0.000000 33.147579
RightShoulder -2.308709 -6.620862 -23.855284
RightArm 16.558222 -28.359602 72.388459
RightForeArm 5.383486 -0.000000 112.979781
RightHand 9.017239 -0.000000 4.285212
RightHandThumb1 -24.326973 -0.000000 -32.862282
LeftUpLeg -45.311549 -5.960414 -1.932934
LeftLeg 25.328843 -0.000000 -0.000000
LeftFoot -6.650414 3.668097 -17.330534
LeftToeBase -4.380851 -0.000000 0.000000
RightUpLeg -3.983566 -3.300080 -1.450188
RightLeg 43.397143 -0.000000 -0.000000
RightFoot 14.458578 -2.894880 20.471567
RightToeBase 9.556943 -0.000000 -0.000000
1885
root 1.821880 31.786767 -11.194863 28.450437 49.402346 3.395936
Spine -17.704844 4.628143 -9.043618
Head -18.620801 -32.253145 11.707951
LeftShoulder -27.534033 50.462956 1.249853
LeftArm 44.839837 1.267001 -71.729263
LeftForeArm 3.028424 -0.000000 118.831925
LeftHand 3.660812 0.000000 -7.452822
LeftHandThumb1 -26.253704 0.000000 33.147579
RightShoulder -2.644925 -7.170405 -23.948583
RightArm 16.107704 -28.020404 71.873050
RightForeArm 5.517084 -0.000000 112.917788
RightHand 8.974603 -0.000000 4.263571
RightHandThumb1 -24.326973 -0.000000 -32.862282
LeftUpLeg -44.608811 -6.279208 -2.157322
LeftLeg 25.055012 -0.000000 -0.000000
LeftFoot -6.672415 2.816497 -17.833905
LeftToeBase -4.040165 -0.000000 0.000000
RightUpLeg -3.926240 -3.437297 -1.255234
RightLeg 47.280965 -0.000000 -0.000000
RightFoot 16.363132 -1.432885 20.506190
RightToeBase 11.513014 -0.000000 -0.000000
1886
root 1.962075 31.809103 -11.074071 28.556938 50.440308 3.842674
Spine -17.815844 4.429166 -9.191205
Head -18.160845 -33.202103 11.667338
LeftShoulder -28.012769 50.644419 0.846231
LeftArm 44.855189 0.205361 -71.226044
LeftForeArm 3.002897 -0.000000 118.829600
LeftHand 3.676656 -0.000000 -7.348772
LeftHandThumb1 -26.253704 0.000000 33.147579
RightShoulder -2.947784 -7.658325 -24.084793
RightArm 15.469692 -27.749785 71.445176
RightForeArm 5.614105 -0.000000 112.847312
RightHand 8.988945 -0.000000 4.114625
RightHandThumb1 -24.326973 -0.000000 -32.862282
LeftUpLeg -43.881293 -6.574528 -2.372817
LeftLeg 24.791613 -0.000000 -0.000000
LeftFoot -6.685395 1.882598 -18.385940
LeftToeBase -3.426911 -0.000000 0.000000
RightUpLeg -3.849624 -3.586787 -1.017473
RightLeg 51.184247 -0.000000 -0.000000
RightFoot 18.321959 -0.403653 20.766632
RightToeBase 14.718409 -0.000000 -0.000000
1887
root 2.096695 31.832351 -10.956143 28.693438 51.479770 4.307152
Spine -17.952788 4.225473 -9.345833
Head -17.646867 -34.205188 11.567786
LeftShoulder -28.468175 50.761134 0.448077
LeftArm 44.886725 -0.982268 -70.668122
LeftForeArm 3.111835 -0.000000 118.792805
LeftHand 3.789889 -0.000000 -7.440744
LeftHandThumb1 -26.253704 0.000000 33.147579
RightShoulder -3.243906 -8.228263 -24.173009
RightArm 14.927679 -27.371676 70.968229
RightForeArm 5.922837 -0.000000 112.743341
RightHand 9.004742 -0.000000 4.326827
RightHandThumb1 -24.326973 -0.000000 -32.862282
LeftUpLeg -43.191107 -6.846154 -2.568513
LeftLeg 24.556134 -0.000000 -0.000000
LeftFoot -6.698111 0.873767 -19.297466
LeftToeBase -2.961943 -0.000000 0.000000
RightUpLeg -3.787106 -3.831505 -0.755632
RightLeg 55.167610 -0.000000 -0.000000
RightFoot 19.782841 0.710201 21.199784
RightToeBase 15.637734 -0.000000 -0.000000
1888
root 2.226759 31.852878 -10.835823 28.754348 52.572869 4.722696
Spine -18.048859 4.006021 -9.446645
Head -17.107673 -35.219536 11.438373
LeftShoulder -28.843151 50.826513 0.116662
LeftArm 44.954531 -2.223839 -70.043794
LeftForeArm 3.168978 -0.000000 118.762404
LeftHand 3.828785 -0.000000 -7.546769
LeftHandThumb1 -26.253704 0.000000 33.147579
RightShoulder -3.575337 -8.773270 -24.239727
RightArm 14.330562 -27.049119 70.482485
RightForeArm 6.161593 0.000000 112.676002
RightHand 8.907234 0.000000 4.395235
RightHandThumb1 -24.326973 -0.000000 -32.862282
LeftUpLeg -42.494680 -7.044082 -2.746030
LeftLeg 24.416147 -0.000000 -0.000000
LeftFoot -6.714609 -0.205538 -20.168104
LeftToeBase -2.332629 -0.000000 0.000000
RightUpLeg -3.664264 -4.148649 -0.376958
RightLeg 59.176531 -0.000000 -0.000000
RightFoot 20.763645 1.857149 21.141760
RightToeBase 17.454754 -0.000000 -0.000000
1889
root 2.364203 31.875644 -10.716611 29.004869 53.506871 5.240847
Spine -18.338328 3.858553 -9.700616
Head -16.454291 -36.266219 11.238642
LeftShoulder -29.194331 50.895720 -0.202331
LeftArm 45.028282 -3.576588 -69.312089
LeftForeArm 3.189985 -0.000000 118.734852
LeftHand 3.817766 -0.000000 -7.628900
LeftHandThumb1 -26.253704 0.000000 33.147579
RightShoulder -3.910660 -9.302328 -24.331773
RightArm 13.579568 -26.888663 70.081983
RightForeArm 6.437014 -0.000000 112.607453
RightHand 8.875827 0.000000 4.255967
RightHandThumb1 -24.326973 -0.000000 -32.862282
LeftUpLeg -41.846389 -7.126052 -3.038523
LeftLeg 24.188226 -0.000000 -0.000000
LeftFoot -6.676581 -1.252623 -20.957368
LeftToeBase -1.750254 -0.000000 0.000000
RightUpLeg -3.591755 -4.452681 -0.162140
RightLeg 63.077526 -0.000000 -0.000000
RightFoot 21.695062 2.319372 22.449503
RightToeBase 17.959918 -0.000000 -0.000000
1890
root 2.495612 31.894668 -10.597766 29.146702 54.509009 5.715842
Spine -18.532446 3.680446 -9.885942
Head -15.749354 -37.274099 10.968785
LeftShoulder -29.462155 50.932365 -0.462794
LeftArm 45.168403 -4.972968 -68.515450
LeftForeArm 3.215555 -0.000000 118.668227
LeftHand 3.859421 -0.000000 -7.573852
LeftHandThumb1 -26.253704 0.000000 33.147579
RightShoulder -4.283749 -9.944731 -24.400782
RightArm 13.086007 -26.696027 69.497886
RightForeArm 6.662913 0.000000 112.470022
RightHand 8.980218 -0.000000 4.263258
RightHandThumb1 -24.326973 -0.000000 -32.862282
LeftUpLeg -41.165719 -7.195504 -3.276547
LeftLeg 24.047823 -0.000000 -0.000000
LeftFoot -6.639036 -2.370446 -21.803599
LeftToeBase -0.903816 -0.000000 0.000000
RightUpLeg -3.401006 -4.849958 0.143806
RightLeg 66.869365 -0.000000 -0.000000
RightFoot 22.666242 2.536118 23.577100
RightToeBase 18.835939 -0.000000 -0.000000
1891
root 2.619563 31.913463 -10.476273 29.271377 55.562952 6.167096
Spine -18.709116 3.435749 -10.035132
Head -15.047505 -38.298840 10.682039
LeftShoulder -29.664396 50.889028 -0.665534
LeftArm 45.307476 -6.432298 -67.665463
LeftForeArm 3.173975 -0.000000 118.579651
LeftHand 3.908557 -0.000000 -7.511177
LeftHandThumb1 -26.253704 0.000000 33.147579
RightShoulder -4.576198 -10.434878 -24.534822
RightArm 12.323359 -26.549838 69.110318
RightForeArm 6.833270 -0.000000 112.354480
RightHand 9.018259 -0.000000 4.379624
RightHandThumb1 -24.326973 -0.000000 -32.862282
LeftUpLeg -40.509383 -7.271110 -3.458922
LeftLeg 23.939766 -0.000000 -0.000000
LeftFoot -6.527374 -3.429498 -22.471161
LeftToeBase -0.526568 -0.000000 0.000000
RightUpLeg -3.183056 -5.291999 0.530345
RightLeg 70.667224 -0.000000 -0.000000
RightFoot 23.503136 2.544332 24.755174
RightToeBase 20.310427 -0.000000 -0.000000
1892
root 2.746872 31.933055 -10.357602 29.445786 56.604070 6.642492
Spine -18.916782 3.175919 -10.176269
Head -14.376275 -39.293110 10.344284
LeftShoulder -29.897889 50.792559 -0.929505
LeftArm 45.497580 -7.926531 -66.678447
LeftForeArm 3.109504 -0.000000 118.446852
LeftHand 4.010046 -0.000000 -7.422003
LeftHandThumb1 -26.253704 0.000000 33.147579
RightShoulder -4.980604 -10.979489 -24.646804
RightArm 11.664278 -26.527424 68.630784
RightForeArm 6.930480 -0.000000 112.243413
RightHand 8.958277 -0.000000 4.413690
RightHandThumb1 -24.326973 -0.000000 -32.862282
LeftUpLeg -39.868524 -7.371346 -3.640179
LeftLeg 23.821266 -0.000000 -0.000000
LeftFoot -6.389178 -4.362882 -22.968968
LeftToeBase -0.047825 -0.000000 0.000000
RightUpLeg -2.971722 -5.806358 0.894817
RightLeg 74.366258 -0.000000 -0.000000
RightFoot 24.441828 2.949038 25.202912
RightToeBase 19.749991 -0.000000 -0.000000
1893
root 2.861043 31.952029 -10.237591 29.498172 57.637963 6.922586
Spine -19.195937 2.929033 -10.219948
Head -13.511093 -40.227718 9.858125
LeftShoulder -29.908947 50.656235 -0.996202
LeftArm 45.604336 -9.450932 -65.723937
LeftForeArm 3.001748 -0.000000 118.327763
LeftHand 3.998040 -0.000000 -7.335438
LeftHandThumb1 -26.253704 0.000000 33.147579
RightShoulder -5.294122 -11.479229 -24.830868
RightArm 10.943109 -26.529162 68.244476
RightForeArm 7.010982 0.000000 112.078971
RightHand 8.978300 -0.000000 4.412590
RightHandThumb1 -24.326973 -0.000000 -32.862282
LeftUpLeg -39.315229 -7.355056 -3.735691
LeftLeg 23.748110 -0.000000 -0.000000
LeftFoot -6.151871 -5.276280 -23.090108
LeftToeBase -0.177114 -0.000000 0.000000
RightUpLeg -2.813286 -6.230747 1.439708
RightLeg 77.965501 -0.000000 -0.000000
RightFoot 25.018061 2.791136 26.066263
RightToeBase 21.105532 -0.000000 -0.000000
1894
root 2.983915 31.967381 -10.122606 29.655769 58.623511 7.438787
Spine -19.324959 2.648837 -10.409784
Head -12.843988 -41.157097 9.538362
LeftShoulder -30.019700 50.431457 -1.094365
LeftArm 45.816428 -10.912295 -64.647221
LeftForeArm 2.981061 -0.000000 118.141080
LeftHand 4.052670 -0.000000 -7.147310
LeftHandThumb1 -26.253704 0.000000 33.147579
RightShoulder -5.705097 -11.966085 -24.990571
RightArm 10.254719 -26.665602 67.833943
RightForeArm 7.185011 -0.000000 111.950835
RightHand 8.895094 -0.000000 4.325381
RightHandThumb1 -24.326973 -0.000000 -32.862282
LeftUpLeg -38.650608 -7.444702 -3.948745
LeftLeg 23.682522 -0.000000 -0.000000
LeftFoot -6.022199 -5.965812 -23.122330
LeftToeBase -0.092085 -0.000000 0.000000
RightUpLeg -2.541331 -6.894343 1.683541
RightLeg 81.497197 -0.000000 -0.000000
RightFoot 25.792929 2.929809 26.690049
RightToeBase 21.317285 -0.000000 -0.000000
